2014001_C1_05_grf
version=1
nRows=15
nColumns=19
inDegrees=no
endheader
time	ground_force_1_vx	ground_force_1_vy	ground_force_1_vz	ground_force_1_px	ground_force_1_py	ground_force_1_pz	ground_force_1_mx	ground_force_1_my	ground_force_1_mz	ground_force_2_vx	ground_force_2_vy	ground_force_2_vz	ground_force_2_px	ground_force_2_py	ground_force_2_pz	ground_force_2_mx	ground_force_2_my	ground_force_2_mz
      4.11800000	      0.00000000	      0.00000000	      0.00000000	      0.00000000	      0.00000000	      0.00000000	      0.00000000	      0.00000000	      0.00000000	     18.64501238	    308.89334530	     39.24716935	      0.14597583	     -0.00200000	      0.81138755	      0.00000000	     -0.42994825	      0.00000000
      4.11900000	      0.00000000	      0.00000000	      0.00000000	      0.00000000	      0.00000000	      0.00000000	      0.00000000	      0.00000000	      0.00000000	     18.60069409	    307.90524743	     39.13189452	      0.14599132	     -0.00200000	      0.81145358	      0.00000000	     -0.42989479	      0.00000000
      4.12000000	      0.00000000	      0.00000000	      0.00000000	      0.00000000	      0.00000000	      0.00000000	      0.00000000	      0.00000000	      0.00000000	     18.55628043	    306.92166090	     39.01660666	      0.14600700	     -0.00200000	      0.81151989	      0.00000000	     -0.42978741	      0.00000000
      4.12100000	      0.00000000	      0.00000000	      0.00000000	      0.00000000	      0.00000000	      0.00000000	      0.00000000	      0.00000000	      0.00000000	     18.51177886	    305.94366789	     38.90124969	      0.14602301	     -0.00200000	      0.81158654	      0.00000000	     -0.42961178	     -0.00000000
      4.12200000	      0.00000000	      0.00000000	      0.00000000	      0.00000000	      0.00000000	      0.00000000	      0.00000000	      0.00000000	      0.00000000	     18.46723408	    304.97000366	     38.78579885	      0.14603930	     -0.00200000	      0.81165349	      0.00000000	     -0.42938329	      0.00000000
      4.12300000	      0.00000000	      0.00000000	      0.00000000	      0.00000000	      0.00000000	      0.00000000	      0.00000000	      0.00000000	      0.00000000	     18.42266321	    304.00152877	     38.67018502	      0.14605597	     -0.00200000	      0.81172083	      0.00000000	     -0.42909164	     -0.00000000
      4.12400000	      0.00000000	      0.00000000	      0.00000000	      0.00000000	      0.00000000	      0.00000000	      0.00000000	      0.00000000	      0.00000000	     18.37809682	    303.03699151	     38.55439909	      0.14607293	     -0.00200000	      0.81178851	      0.00000000	     -0.42875077	      0.00000000
      4.12500000	      0.00000000	      0.00000000	      0.00000000	      0.00000000	      0.00000000	      0.00000000	      0.00000000	      0.00000000	      0.00000000	     18.33356917	    302.07717419	     38.43834195	      0.14609027	     -0.00200000	      0.81185659	      0.00000000	     -0.42834641	      0.00000000
      4.12600000	      0.00000000	      0.00000000	      0.00000000	      0.00000000	      0.00000000	      0.00000000	      0.00000000	      0.00000000	      0.00000000	     18.28910261	    301.12090334	     38.32201622	      0.14610790	     -0.00200000	      0.81192501	      0.00000000	     -0.42789050	      0.00000000
      4.12700000	      0.00000000	      0.00000000	      0.00000000	      0.00000000	      0.00000000	      0.00000000	      0.00000000	      0.00000000	      0.00000000	     18.24476048	    300.16880482	     38.20528761	      0.14612586	     -0.00200000	      0.81199385	      0.00000000	     -0.42736880	      0.00000000
      4.12800000	      0.00000000	      0.00000000	      0.00000000	      0.00000000	      0.00000000	      0.00000000	      0.00000000	      0.00000000	      0.00000000	     18.20056140	    299.21980947	     38.08818087	      0.14614407	     -0.00200000	      0.81206305	      0.00000000	     -0.42679518	      0.00000000
      4.12900000	      0.00000000	      0.00000000	      0.00000000	      0.00000000	      0.00000000	      0.00000000	      0.00000000	      0.00000000	      0.00000000	     18.15659627	    298.27445187	     37.97053825	      0.14616258	     -0.00200000	      0.81213268	      0.00000000	     -0.42615724	      0.00000000
      4.13000000	      0.00000000	      0.00000000	      0.00000000	      0.00000000	      0.00000000	      0.00000000	      0.00000000	      0.00000000	      0.00000000	     18.11284870	    297.33180627	     37.85241581	      0.14618135	     -0.00200000	      0.81220268	      0.00000000	     -0.42546718	      0.00000000
      4.13100000	      0.00000000	      0.00000000	      0.00000000	      0.00000000	      0.00000000	      0.00000000	      0.00000000	      0.00000000	      0.00000000	     18.06941107	    296.39223777	     37.73364276	      0.14620046	     -0.00200000	      0.81227315	      0.00000000	     -0.42471555	      0.00000000
      4.13200000	      0.00000000	      0.00000000	      0.00000000	      0.00000000	      0.00000000	      0.00000000	      0.00000000	      0.00000000	      0.00000000	     18.02624762	    295.45488581	     37.61429600	      0.14621985	     -0.00200000	      0.81234400	      0.00000000	     -0.42391764	      0.00000000
